<svg width="21" height="20" viewBox="0 0 21 20" fill="none" xmlns="http://www.w3.org/2000/svg">
<path fill-rule="evenodd" clip-rule="evenodd" d="M0.93852 9.84103C0.948926 9.18666 1.55321 8.73114 2.20176 8.81883C2.85032 8.90653 3.29524 9.50523 3.30893 10.1595C3.33427 11.3713 3.64816 12.5656 4.2319 13.6407C5.0051 15.0648 6.2116 16.2057 7.67661 16.8982C9.14161 17.5907 10.789 17.7988 12.3802 17.4923C13.9714 17.1859 15.4237 16.3808 16.5267 15.1937C17.6298 14.0066 18.3262 12.4992 18.5152 10.8899C18.7042 9.2805 18.3759 7.65276 17.5779 6.24245C16.7799 4.83215 15.5536 3.71253 14.0767 3.04579C13.2426 2.66929 12.3532 2.44824 11.4513 2.38734V10.5728L13.7581 8.29909C13.8619 8.19676 13.9852 8.1156 14.1208 8.06022C14.2564 8.00484 14.4018 7.97634 14.5486 7.97634C14.6955 7.97634 14.8408 8.00484 14.9765 8.06022C15.1121 8.1156 15.2354 8.19676 15.3392 8.29909C15.443 8.40141 15.5253 8.52289 15.5815 8.65658C15.6377 8.79028 15.6666 8.93357 15.6666 9.07828C15.6666 9.22299 15.6377 9.36628 15.5815 9.49997C15.5253 9.63366 15.443 9.75514 15.3392 9.85746L11.1235 14.0112C10.9139 14.2175 10.6298 14.3333 10.3337 14.3333C10.0375 14.3333 9.75343 14.2175 9.54387 14.0112L5.32741 9.85746C5.11775 9.65081 4.99996 9.37053 4.99996 9.07828C4.99996 8.78603 5.11775 8.50574 5.32741 8.29909C5.53708 8.09244 5.82144 7.97634 6.11795 7.97634C6.41446 7.97634 6.69883 8.09244 6.90849 8.29909L9.21603 10.5728V2.10158C9.21603 1.98315 9.23538 1.86668 9.27236 1.75629C9.20104 1.64176 9.14828 1.51386 9.11892 1.37459C8.98392 0.734206 9.39392 0.0981598 10.0458 0.0398132C11.7528 -0.112982 13.4777 0.175082 15.0518 0.885706C16.9875 1.75954 18.5947 3.22693 19.6405 5.0753C20.6864 6.92366 21.1167 9.05701 20.869 11.1663C20.6213 13.2755 19.7085 15.2512 18.2629 16.807C16.8173 18.3628 14.9139 19.4179 12.8284 19.8195C10.743 20.2212 8.58386 19.9485 6.66379 19.0409C4.74373 18.1333 3.16247 16.638 2.1491 14.7716C1.325 13.2538 0.911269 11.5547 0.93852 9.84103Z" fill="white"/>
</svg>
